<svg width="76" height="20" viewBox="0 0 76 20" fill="none" xmlns="http://www.w3.org/2000/svg">
<path d="M6.28572 2C4.61925 2.00197 3.0216 2.66484 1.84322 3.84321C0.664847 5.02159 0.00197267 6.61924 6.68736e-06 8.28571C-0.00198925 9.64756 0.442853 10.9724 1.26629 12.0571C1.26629 12.0571 1.43772 12.2829 1.46572 12.3154L6.28572 18L11.108 12.3126C11.1331 12.2823 11.3052 12.0571 11.3052 12.0571L11.3057 12.0554C12.1288 10.9712 12.5734 9.64693 12.5714 8.28571C12.5695 6.61924 11.9066 5.02159 10.7282 3.84321C9.54985 2.66484 7.95219 2.00197 6.28572 2ZM6.28572 10.5714C5.83365 10.5714 5.39173 10.4374 5.01585 10.1862C4.63996 9.93506 4.347 9.57808 4.174 9.16042C4.001 8.74276 3.95573 8.28318 4.04393 7.83979C4.13212 7.39641 4.34981 6.98913 4.66948 6.66947C4.98914 6.34981 5.39642 6.13211 5.8398 6.04392C6.28319 5.95572 6.74277 6.00099 7.16043 6.17399C7.57809 6.34699 7.93507 6.63996 8.18622 7.01584C8.43738 7.39172 8.57144 7.83364 8.57144 8.28571C8.57068 8.89169 8.32962 9.47263 7.90113 9.90112C7.47264 10.3296 6.8917 10.5707 6.28572 10.5714Z" fill="#999999"/>
<path d="M28.2482 4.848V6.032H23.4002V9.792H27.3362V10.976H23.4002V16H21.9442V4.848H28.2482ZM31.4627 8.656C31.7187 8.15467 32.0813 7.76533 32.5507 7.488C33.0307 7.21067 33.612 7.072 34.2947 7.072V8.576H33.9107C32.2787 8.576 31.4627 9.46133 31.4627 11.232V16H30.0067V7.232H31.4627V8.656ZM35.4314 11.584C35.4314 10.688 35.6127 9.904 35.9754 9.232C36.3381 8.54933 36.8341 8.02133 37.4634 7.648C38.1034 7.27467 38.8127 7.088 39.5914 7.088C40.3594 7.088 41.0261 7.25333 41.5914 7.584C42.1567 7.91467 42.5781 8.33067 42.8554 8.832V7.232H44.3274V16H42.8554V14.368C42.5674 14.88 42.1354 15.3067 41.5594 15.648C40.9941 15.9787 40.3327 16.144 39.5754 16.144C38.7967 16.144 38.0927 15.952 37.4634 15.568C36.8341 15.184 36.3381 14.6453 35.9754 13.952C35.6127 13.2587 35.4314 12.4693 35.4314 11.584ZM42.8554 11.6C42.8554 10.9387 42.7221 10.3627 42.4554 9.872C42.1887 9.38133 41.8261 9.008 41.3674 8.752C40.9194 8.48533 40.4234 8.352 39.8794 8.352C39.3354 8.352 38.8394 8.48 38.3914 8.736C37.9434 8.992 37.5861 9.36533 37.3194 9.856C37.0527 10.3467 36.9194 10.9227 36.9194 11.584C36.9194 12.256 37.0527 12.8427 37.3194 13.344C37.5861 13.8347 37.9434 14.2133 38.3914 14.48C38.8394 14.736 39.3354 14.864 39.8794 14.864C40.4234 14.864 40.9194 14.736 41.3674 14.48C41.8261 14.2133 42.1887 13.8347 42.4554 13.344C42.7221 12.8427 42.8554 12.2613 42.8554 11.6ZM51.0599 7.072C52.1266 7.072 52.9906 7.39733 53.6519 8.048C54.3132 8.688 54.6439 9.616 54.6439 10.832V16H53.2039V11.04C53.2039 10.1653 52.9852 9.49867 52.5479 9.04C52.1106 8.57067 51.5132 8.336 50.7559 8.336C49.9879 8.336 49.3746 8.576 48.9159 9.056C48.4679 9.536 48.2439 10.2347 48.2439 11.152V16H46.7879V7.232H48.2439V8.48C48.5319 8.032 48.9212 7.68533 49.4119 7.44C49.9132 7.19467 50.4626 7.072 51.0599 7.072ZM56.4783 11.6C56.4783 10.6933 56.6596 9.904 57.0223 9.232C57.385 8.54933 57.8863 8.02133 58.5263 7.648C59.1769 7.27467 59.9183 7.088 60.7503 7.088C61.8276 7.088 62.713 7.34933 63.4063 7.872C64.1103 8.39467 64.5743 9.12 64.7983 10.048H63.2303C63.081 9.51467 62.7876 9.09333 62.3503 8.784C61.9236 8.47467 61.3903 8.32 60.7503 8.32C59.9183 8.32 59.2463 8.608 58.7343 9.184C58.2223 9.74933 57.9663 10.5547 57.9663 11.6C57.9663 12.656 58.2223 13.472 58.7343 14.048C59.2463 14.624 59.9183 14.912 60.7503 14.912C61.3903 14.912 61.9236 14.7627 62.3503 14.464C62.777 14.1653 63.0703 13.7387 63.2303 13.184H64.7983C64.5636 14.08 64.0943 14.8 63.3903 15.344C62.6863 15.8773 61.8063 16.144 60.7503 16.144C59.9183 16.144 59.1769 15.9573 58.5263 15.584C57.8863 15.2107 57.385 14.6827 57.0223 14C56.6596 13.3173 56.4783 12.5173 56.4783 11.6ZM74.741 11.28C74.741 11.5573 74.725 11.8507 74.693 12.16H67.685C67.7384 13.024 68.0317 13.7013 68.565 14.192C69.109 14.672 69.765 14.912 70.533 14.912C71.1624 14.912 71.685 14.768 72.101 14.48C72.5277 14.1813 72.8264 13.7867 72.997 13.296H74.565C74.3304 14.1387 73.861 14.8267 73.157 15.36C72.453 15.8827 71.5784 16.144 70.533 16.144C69.701 16.144 68.9544 15.9573 68.293 15.584C67.6424 15.2107 67.1304 14.6827 66.757 14C66.3837 13.3067 66.197 12.5067 66.197 11.6C66.197 10.6933 66.3784 9.89867 66.741 9.216C67.1037 8.53333 67.6104 8.01067 68.261 7.648C68.9224 7.27467 69.6797 7.088 70.533 7.088C71.365 7.088 72.101 7.26933 72.741 7.632C73.381 7.99467 73.8717 8.496 74.213 9.136C74.565 9.76533 74.741 10.48 74.741 11.28ZM73.237 10.976C73.237 10.4213 73.1144 9.94667 72.869 9.552C72.6237 9.14667 72.2877 8.84267 71.861 8.64C71.445 8.42667 70.981 8.32 70.469 8.32C69.733 8.32 69.1037 8.55467 68.581 9.024C68.069 9.49333 67.7757 10.144 67.701 10.976H73.237Z" fill="#666666"/>
</svg>
