<svg width="55" height="21" viewBox="0 0 55 21" fill="none" xmlns="http://www.w3.org/2000/svg">
<path d="M6.28572 2C4.61925 2.00197 3.0216 2.66484 1.84322 3.84321C0.664847 5.02159 0.00197267 6.61924 6.68736e-06 8.28571C-0.00198925 9.64756 0.442853 10.9724 1.26629 12.0571C1.26629 12.0571 1.43772 12.2829 1.46572 12.3154L6.28572 18L11.108 12.3126C11.1331 12.2823 11.3052 12.0571 11.3052 12.0571L11.3057 12.0554C12.1288 10.9712 12.5734 9.64693 12.5714 8.28571C12.5695 6.61924 11.9066 5.02159 10.7282 3.84321C9.54985 2.66484 7.95219 2.00197 6.28572 2ZM6.28572 10.5714C5.83365 10.5714 5.39173 10.4374 5.01585 10.1862C4.63996 9.93506 4.347 9.57808 4.174 9.16042C4.001 8.74276 3.95573 8.28318 4.04393 7.83979C4.13212 7.39641 4.34981 6.98913 4.66948 6.66947C4.98914 6.34981 5.39642 6.13211 5.8398 6.04392C6.28319 5.95572 6.74277 6.00099 7.16043 6.17399C7.57809 6.34699 7.93507 6.63996 8.18622 7.01584C8.43738 7.39172 8.57144 7.83364 8.57144 8.28571C8.57068 8.89169 8.32962 9.47263 7.90113 9.90112C7.47264 10.3296 6.8917 10.5707 6.28572 10.5714Z" fill="#999999"/>
<path d="M6.28571 10.5714C7.54808 10.5714 8.57143 9.54808 8.57143 8.28571C8.57143 7.02335 7.54808 6 6.28571 6C5.02335 6 4 7.02335 4 8.28571C4 9.54808 5.02335 10.5714 6.28571 10.5714Z" fill="#FEFCFB"/>
<path d="M23.4939 4.848V16H22.0379V4.848H23.4939ZM27.7514 8.432V13.6C27.7514 14.0267 27.8421 14.3307 28.0234 14.512C28.2047 14.6827 28.5194 14.768 28.9674 14.768H30.0394V16H28.7274C27.9167 16 27.3087 15.8133 26.9034 15.44C26.4981 15.0667 26.2954 14.4533 26.2954 13.6V8.432H25.1594V7.232H26.2954V5.024H27.7514V7.232H30.0394V8.432H27.7514ZM31.2595 11.584C31.2595 10.688 31.4409 9.904 31.8035 9.232C32.1662 8.54933 32.6622 8.02133 33.2915 7.648C33.9315 7.27467 34.6409 7.088 35.4195 7.088C36.1875 7.088 36.8542 7.25333 37.4195 7.584C37.9849 7.91467 38.4062 8.33067 38.6835 8.832V7.232H40.1555V16H38.6835V14.368C38.3955 14.88 37.9635 15.3067 37.3875 15.648C36.8222 15.9787 36.1609 16.144 35.4035 16.144C34.6249 16.144 33.9209 15.952 33.2915 15.568C32.6622 15.184 32.1662 14.6453 31.8035 13.952C31.4409 13.2587 31.2595 12.4693 31.2595 11.584ZM38.6835 11.6C38.6835 10.9387 38.5502 10.3627 38.2835 9.872C38.0169 9.38133 37.6542 9.008 37.1955 8.752C36.7475 8.48533 36.2515 8.352 35.7075 8.352C35.1635 8.352 34.6675 8.48 34.2195 8.736C33.7715 8.992 33.4142 9.36533 33.1475 9.856C32.8809 10.3467 32.7475 10.9227 32.7475 11.584C32.7475 12.256 32.8809 12.8427 33.1475 13.344C33.4142 13.8347 33.7715 14.2133 34.2195 14.48C34.6675 14.736 35.1635 14.864 35.7075 14.864C36.2515 14.864 36.7475 14.736 37.1955 14.48C37.6542 14.2133 38.0169 13.8347 38.2835 13.344C38.5502 12.8427 38.6835 12.2613 38.6835 11.6ZM44.072 4.16V16H42.616V4.16H44.072ZM54.1055 7.232L48.8255 20.128H47.3215L49.0495 15.904L45.5135 7.232H47.1295L49.8815 14.336L52.6015 7.232H54.1055Z" fill="#666666"/>
</svg>
