<svg width="67" height="21" viewBox="0 0 67 21" fill="none" xmlns="http://www.w3.org/2000/svg">
<path d="M6.28572 2C4.61925 2.00197 3.0216 2.66484 1.84322 3.84321C0.664847 5.02159 0.00197267 6.61924 6.68736e-06 8.28571C-0.00198925 9.64756 0.442853 10.9724 1.26629 12.0571C1.26629 12.0571 1.43772 12.2829 1.46572 12.3154L6.28572 18L11.108 12.3126C11.1331 12.2823 11.3052 12.0571 11.3052 12.0571L11.3057 12.0554C12.1288 10.9712 12.5734 9.64693 12.5714 8.28571C12.5695 6.61924 11.9066 5.02159 10.7282 3.84321C9.54985 2.66484 7.95219 2.00197 6.28572 2ZM6.28572 10.5714C5.83365 10.5714 5.39173 10.4374 5.01585 10.1862C4.63996 9.93506 4.347 9.57808 4.174 9.16042C4.001 8.74276 3.95573 8.28318 4.04393 7.83979C4.13212 7.39641 4.34981 6.98913 4.66948 6.66947C4.98914 6.34981 5.39642 6.13211 5.8398 6.04392C6.28319 5.95572 6.74277 6.00099 7.16043 6.17399C7.57809 6.34699 7.93507 6.63996 8.18622 7.01584C8.43738 7.39172 8.57144 7.83364 8.57144 8.28571C8.57068 8.89169 8.32962 9.47263 7.90113 9.90112C7.47264 10.3296 6.8917 10.5707 6.28572 10.5714Z" fill="#999999"/>
<path d="M25.7458 16.112C25.0098 16.112 24.3485 15.984 23.7618 15.728C23.1858 15.4613 22.7324 15.0987 22.4018 14.64C22.0711 14.1707 21.9004 13.632 21.8898 13.024H23.4418C23.4951 13.5467 23.7084 13.9893 24.0818 14.352C24.4658 14.704 25.0204 14.88 25.7458 14.88C26.4391 14.88 26.9831 14.7093 27.3778 14.368C27.7831 14.016 27.9858 13.568 27.9858 13.024C27.9858 12.5973 27.8685 12.2507 27.6338 11.984C27.3991 11.7173 27.1058 11.5147 26.7538 11.376C26.4018 11.2373 25.9271 11.088 25.3298 10.928C24.5938 10.736 24.0018 10.544 23.5538 10.352C23.1164 10.16 22.7378 9.86133 22.4178 9.456C22.1084 9.04 21.9538 8.48533 21.9538 7.792C21.9538 7.184 22.1084 6.64533 22.4178 6.176C22.7271 5.70667 23.1591 5.344 23.7138 5.088C24.2791 4.832 24.9245 4.704 25.6498 4.704C26.6951 4.704 27.5485 4.96533 28.2098 5.488C28.8818 6.01067 29.2605 6.704 29.3458 7.568H27.7458C27.6925 7.14133 27.4685 6.768 27.0738 6.448C26.6791 6.11733 26.1565 5.952 25.5058 5.952C24.8978 5.952 24.4018 6.112 24.0178 6.432C23.6338 6.74133 23.4418 7.17867 23.4418 7.744C23.4418 8.14933 23.5538 8.48 23.7778 8.736C24.0125 8.992 24.2951 9.18933 24.6258 9.328C24.9671 9.456 25.4418 9.60533 26.0498 9.776C26.7858 9.97867 27.3778 10.1813 27.8258 10.384C28.2738 10.576 28.6578 10.88 28.9778 11.296C29.2978 11.7013 29.4578 12.256 29.4578 12.96C29.4578 13.504 29.3138 14.016 29.0258 14.496C28.7378 14.976 28.3111 15.3653 27.7458 15.664C27.1804 15.9627 26.5138 16.112 25.7458 16.112ZM33.0564 8.848C33.3444 8.34667 33.7711 7.93067 34.3364 7.6C34.9124 7.25867 35.5791 7.088 36.3364 7.088C37.1151 7.088 37.8191 7.27467 38.4484 7.648C39.0884 8.02133 39.5897 8.54933 39.9524 9.232C40.3151 9.904 40.4964 10.688 40.4964 11.584C40.4964 12.4693 40.3151 13.2587 39.9524 13.952C39.5897 14.6453 39.0884 15.184 38.4484 15.568C37.8191 15.952 37.1151 16.144 36.3364 16.144C35.5897 16.144 34.9284 15.9787 34.3524 15.648C33.7871 15.3067 33.3551 14.8853 33.0564 14.384V20.16H31.6004V7.232H33.0564V8.848ZM39.0084 11.584C39.0084 10.9227 38.8751 10.3467 38.6084 9.856C38.3417 9.36533 37.9791 8.992 37.5204 8.736C37.0724 8.48 36.5764 8.352 36.0324 8.352C35.4991 8.352 35.0031 8.48533 34.5444 8.752C34.0964 9.008 33.7337 9.38667 33.4564 9.888C33.1897 10.3787 33.0564 10.9493 33.0564 11.6C33.0564 12.2613 33.1897 12.8427 33.4564 13.344C33.7337 13.8347 34.0964 14.2133 34.5444 14.48C35.0031 14.736 35.4991 14.864 36.0324 14.864C36.5764 14.864 37.0724 14.736 37.5204 14.48C37.9791 14.2133 38.3417 13.8347 38.6084 13.344C38.8751 12.8427 39.0084 12.256 39.0084 11.584ZM41.8689 11.584C41.8689 10.688 42.0502 9.904 42.4129 9.232C42.7756 8.54933 43.2716 8.02133 43.9009 7.648C44.5409 7.27467 45.2502 7.088 46.0289 7.088C46.7969 7.088 47.4636 7.25333 48.0289 7.584C48.5942 7.91467 49.0156 8.33067 49.2929 8.832V7.232H50.7649V16H49.2929V14.368C49.0049 14.88 48.5729 15.3067 47.9969 15.648C47.4316 15.9787 46.7702 16.144 46.0129 16.144C45.2342 16.144 44.5302 15.952 43.9009 15.568C43.2716 15.184 42.7756 14.6453 42.4129 13.952C42.0502 13.2587 41.8689 12.4693 41.8689 11.584ZM49.2929 11.6C49.2929 10.9387 49.1596 10.3627 48.8929 9.872C48.6262 9.38133 48.2636 9.008 47.8049 8.752C47.3569 8.48533 46.8609 8.352 46.3169 8.352C45.7729 8.352 45.2769 8.48 44.8289 8.736C44.3809 8.992 44.0236 9.36533 43.7569 9.856C43.4902 10.3467 43.3569 10.9227 43.3569 11.584C43.3569 12.256 43.4902 12.8427 43.7569 13.344C44.0236 13.8347 44.3809 14.2133 44.8289 14.48C45.2769 14.736 45.7729 14.864 46.3169 14.864C46.8609 14.864 47.3569 14.736 47.8049 14.48C48.2636 14.2133 48.6262 13.8347 48.8929 13.344C49.1596 12.8427 49.2929 12.2613 49.2929 11.6ZM53.9774 5.808C53.7001 5.808 53.4654 5.712 53.2734 5.52C53.0814 5.328 52.9854 5.09333 52.9854 4.816C52.9854 4.53867 53.0814 4.304 53.2734 4.112C53.4654 3.92 53.7001 3.824 53.9774 3.824C54.2441 3.824 54.4681 3.92 54.6494 4.112C54.8414 4.304 54.9374 4.53867 54.9374 4.816C54.9374 5.09333 54.8414 5.328 54.6494 5.52C54.4681 5.712 54.2441 5.808 53.9774 5.808ZM54.6814 7.232V16H53.2254V7.232H54.6814ZM61.4349 7.072C62.5016 7.072 63.3656 7.39733 64.0269 8.048C64.6882 8.688 65.0189 9.616 65.0189 10.832V16H63.5789V11.04C63.5789 10.1653 63.3602 9.49867 62.9229 9.04C62.4856 8.57067 61.8882 8.336 61.1309 8.336C60.3629 8.336 59.7496 8.576 59.2909 9.056C58.8429 9.536 58.6189 10.2347 58.6189 11.152V16H57.1629V7.232H58.6189V8.48C58.9069 8.032 59.2962 7.68533 59.7869 7.44C60.2882 7.19467 60.8376 7.072 61.4349 7.072Z" fill="#666666"/>
</svg>
