<svg width="42" height="20" viewBox="0 0 42 20" fill="none" xmlns="http://www.w3.org/2000/svg">
<path d="M6.28572 2C4.61925 2.00197 3.0216 2.66484 1.84322 3.84321C0.664847 5.02159 0.00197267 6.61924 6.68736e-06 8.28571C-0.00198925 9.64756 0.442853 10.9724 1.26629 12.0571C1.26629 12.0571 1.43772 12.2829 1.46572 12.3154L6.28572 18L11.108 12.3126C11.1331 12.2823 11.3052 12.0571 11.3052 12.0571L11.3057 12.0554C12.1288 10.9712 12.5734 9.64693 12.5714 8.28571C12.5695 6.61924 11.9066 5.02159 10.7282 3.84321C9.54985 2.66484 7.95219 2.00197 6.28572 2ZM6.28572 10.5714C5.83365 10.5714 5.39173 10.4374 5.01585 10.1862C4.63996 9.93506 4.347 9.57808 4.174 9.16042C4.001 8.74276 3.95573 8.28318 4.04393 7.83979C4.13212 7.39641 4.34981 6.98913 4.66948 6.66947C4.98914 6.34981 5.39642 6.13211 5.8398 6.04392C6.28319 5.95572 6.74277 6.00099 7.16043 6.17399C7.57809 6.34699 7.93507 6.63996 8.18622 7.01584C8.43738 7.39172 8.57144 7.83364 8.57144 8.28571C8.57068 8.89169 8.32962 9.47263 7.90113 9.90112C7.47264 10.3296 6.8917 10.5707 6.28572 10.5714Z" fill="#999999"/>
<path d="M23.54 4.848V11.904C23.54 12.896 23.78 13.632 24.26 14.112C24.7507 14.592 25.428 14.832 26.292 14.832C27.1454 14.832 27.812 14.592 28.292 14.112C28.7827 13.632 29.028 12.896 29.028 11.904V4.848H30.484V11.888C30.484 12.816 30.2974 13.6 29.924 14.24C29.5507 14.8693 29.044 15.3387 28.404 15.648C27.7747 15.9573 27.0654 16.112 26.276 16.112C25.4867 16.112 24.772 15.9573 24.132 15.648C23.5027 15.3387 23.0014 14.8693 22.628 14.24C22.2654 13.6 22.084 12.816 22.084 11.888V4.848H23.54ZM38.9609 16L34.3689 10.912V16H32.9129V4.848H34.3689V10.016L38.9769 4.848H40.8169L35.7609 10.432L40.8649 16H38.9609Z" fill="#666666"/>
</svg>
